<?xml version="1.0" encoding="UTF-8" ?>
<!DOCTYPE svg PUBLIC "-//W3C//DTD SVG 1.1//EN" "http://www.w3.org/Graphics/SVG/1.1/DTD/svg11.dtd">
<svg width="260pt" height="260pt" viewBox="0 0 260 260" version="1.1" xmlns="http://www.w3.org/2000/svg">
<g id="#ffffffff">
<path fill="#ffffff" opacity="1.00" d=" M 66.11 115.27 C 66.29 115.50 66.63 115.97 66.80 116.20 C 67.55 116.59 68.36 116.82 69.23 116.90 C 67.56 120.21 63.71 118.33 66.11 115.27 Z" />
<path fill="#ffffff" opacity="1.00" d=" M 135.14 120.21 C 136.75 120.11 138.37 120.02 139.98 119.92 C 139.96 126.59 139.99 133.26 139.95 139.92 C 138.35 139.91 136.75 139.89 135.15 139.83 C 134.93 139.24 134.48 138.06 134.26 137.47 C 134.44 133.48 134.62 129.50 134.73 125.51 C 134.76 125.09 134.83 124.26 134.86 123.84 C 134.97 122.63 135.07 121.42 135.14 120.21 Z" />
<path fill="#ffffff" opacity="1.00" d=" M 123.70 123.03 C 124.66 122.30 125.61 121.55 126.55 120.78 C 126.55 121.37 126.55 122.55 126.55 123.13 C 126.62 124.39 127.39 124.93 128.86 124.77 L 129.70 124.85 C 129.52 126.70 129.26 128.53 129.02 130.37 C 127.23 130.32 125.39 130.46 124.05 131.83 C 125.90 133.35 127.06 135.35 126.95 137.82 C 127.44 137.67 128.42 137.38 128.91 137.23 C 128.49 138.30 128.09 139.37 127.69 140.44 C 124.58 140.80 121.83 139.33 119.29 137.75 C 119.47 137.06 119.82 135.67 120.00 134.98 C 120.85 134.38 121.70 133.78 122.55 133.19 C 122.41 131.81 122.19 130.45 121.90 129.10 C 123.33 129.77 124.43 129.38 125.20 127.91 C 125.89 127.54 126.58 127.17 127.27 126.79 C 125.44 127.01 124.29 126.25 123.82 124.52 C 123.79 124.15 123.73 123.40 123.70 123.03 Z" />
<path fill="#ffffff" opacity="1.00" d=" M 89.10 161.33 C 92.43 159.36 96.37 160.05 100.04 160.09 C 99.98 161.93 99.94 163.78 99.81 165.62 C 99.32 165.72 98.33 165.90 97.84 165.99 C 95.06 164.19 92.19 162.53 89.10 161.33 Z" />
<path fill="#ffffff" opacity="1.00" d=" M 125.38 162.85 C 125.75 161.63 126.11 160.41 126.49 159.20 C 127.39 159.71 129.19 160.75 130.09 161.26 C 128.52 161.81 126.97 162.38 125.38 162.85 Z" />
</g>
<g id="#ebebebff">
<path fill="#ebebeb" opacity="1.00" d=" M 120.03 33.54 C 126.05 33.32 131.96 34.83 137.98 34.66 C 142.09 34.56 146.19 34.93 150.23 35.69 C 146.96 35.81 143.70 35.98 140.43 36.06 C 140.07 37.24 139.72 38.43 139.37 39.62 C 132.94 40.41 126.46 39.85 120.01 40.00 C 120.02 37.85 120.02 35.69 120.03 33.54 Z" />
<path fill="#ebebeb" opacity="1.00" d=" M 20.21 122.01 C 20.16 120.55 21.93 120.27 22.82 119.53 C 22.67 126.26 21.74 133.07 23.79 139.64 C 22.85 139.73 20.96 139.90 20.01 139.99 C 20.02 134.00 19.70 127.98 20.21 122.01 Z" />
</g>
<g id="#373737ff">
<path fill="#373737" opacity="1.00" d=" M 100.47 8.84 C 101.34 8.47 102.22 8.11 103.10 7.76 C 104.21 9.21 105.15 10.78 105.76 12.50 C 103.91 12.32 102.06 12.01 100.38 11.20 C 100.40 10.61 100.45 9.43 100.47 8.84 Z" />
</g>
<g id="#1a1a18ff">
<path fill="#1a1a18" opacity="1.00" d=" M 147.22 12.54 C 151.54 12.19 155.84 12.61 160.05 13.61 C 165.04 14.43 169.59 17.25 173.23 20.67 L 173.86 21.27 C 176.56 23.22 180.16 22.55 183.24 23.40 C 187.50 24.90 192.19 25.20 196.03 27.77 C 196.71 27.64 198.05 27.37 198.73 27.24 C 198.38 27.72 197.70 28.70 197.35 29.18 C 197.76 29.62 198.58 30.50 198.99 30.94 C 201.08 33.62 204.33 35.82 204.71 39.43 L 206.25 39.81 C 206.65 39.57 207.45 39.09 207.85 38.85 C 208.04 38.43 208.40 37.58 208.59 37.16 C 208.91 37.09 209.56 36.93 209.89 36.85 C 209.57 37.90 209.23 38.94 208.88 39.98 C 207.79 42.27 210.19 44.15 211.12 46.05 C 212.33 46.53 213.56 46.93 214.83 47.28 C 213.94 47.32 212.18 47.41 211.29 47.45 C 212.03 48.07 213.51 49.30 214.25 49.92 C 214.26 51.00 214.28 52.08 214.32 53.16 C 215.45 53.92 216.63 54.62 217.81 55.31 L 218.89 55.81 C 220.41 57.22 221.72 58.85 223.01 60.48 C 220.99 59.20 219.37 57.42 217.68 55.77 C 217.58 56.25 217.37 57.22 217.26 57.71 C 216.37 56.07 214.50 56.34 212.93 56.41 C 213.49 55.58 214.05 54.76 214.61 53.93 C 213.89 53.75 212.46 53.39 211.74 53.21 C 211.63 54.15 211.41 56.02 211.30 56.96 C 212.12 58.00 212.95 59.03 213.75 60.08 C 216.56 63.11 217.41 67.37 216.33 71.33 C 215.41 71.89 214.62 71.78 213.97 70.99 C 211.32 68.76 210.30 65.35 209.21 62.20 C 208.43 62.65 207.65 63.11 206.87 63.58 C 205.48 61.59 204.01 59.66 202.25 57.99 C 199.69 60.97 196.89 57.99 194.79 56.13 C 194.73 56.71 194.60 57.86 194.53 58.44 C 193.65 58.36 191.87 58.21 190.98 58.14 C 190.63 58.76 189.91 60.01 189.55 60.63 C 189.66 59.86 189.88 58.31 189.99 57.53 C 189.56 57.84 188.70 58.45 188.27 58.76 L 187.86 58.54 C 187.14 56.61 185.50 55.86 183.53 55.96 C 182.45 55.15 181.42 54.25 180.39 53.38 C 180.90 52.58 181.43 51.79 181.95 50.99 C 181.18 49.20 180.41 47.40 179.64 45.61 C 177.99 45.44 176.34 45.30 174.69 45.13 C 174.66 44.75 174.60 43.98 174.57 43.59 C 170.15 42.01 165.36 41.45 161.23 39.12 C 157.83 37.25 154.04 36.26 150.23 35.69 C 146.19 34.93 142.09 34.56 137.98 34.66 C 131.96 34.83 126.05 33.32 120.03 33.54 C 115.32 34.08 109.77 32.42 105.67 35.29 C 101.33 34.52 97.07 35.95 92.87 36.87 C 87.88 38.22 82.64 39.10 78.18 41.86 C 75.49 42.86 72.38 43.21 70.24 45.30 C 65.99 49.40 61.48 53.35 58.46 58.50 C 55.74 63.17 51.34 66.91 50.24 72.41 C 48.28 75.46 46.45 78.64 45.45 82.15 C 44.24 86.49 42.08 90.69 42.27 95.30 C 42.25 95.86 42.22 96.98 42.21 97.54 C 42.93 97.61 44.37 97.75 45.09 97.82 C 43.89 98.06 42.71 98.40 41.52 98.67 C 41.41 99.38 41.19 100.79 41.08 101.50 C 40.32 98.53 40.17 95.45 39.89 92.41 C 39.22 94.54 38.54 96.67 38.17 98.87 C 37.34 98.76 36.50 98.64 35.67 98.52 C 32.80 110.19 34.55 122.31 36.10 134.03 C 36.91 139.13 40.29 143.32 41.50 148.29 C 42.75 153.92 46.59 158.77 51.23 162.06 C 54.30 166.77 58.09 170.99 61.98 175.04 C 61.95 173.56 62.32 171.96 61.22 170.77 C 56.79 164.26 51.35 158.33 48.08 151.09 C 43.83 141.30 39.45 131.19 39.28 120.33 C 39.87 120.20 41.03 119.93 41.62 119.80 C 42.92 125.26 42.13 131.11 44.62 136.34 C 47.26 143.71 49.14 151.58 53.97 157.91 C 56.70 161.41 58.95 165.34 62.38 168.25 C 63.66 165.72 65.36 163.44 67.26 161.35 C 68.04 161.23 69.58 160.99 70.35 160.87 C 70.25 159.34 70.13 157.82 70.02 156.30 C 70.36 156.41 71.03 156.63 71.37 156.74 C 69.62 152.51 69.88 147.52 70.02 142.96 C 67.80 139.78 65.13 136.96 62.80 133.87 C 60.92 131.35 60.93 127.99 62.70 125.41 C 63.13 124.62 63.99 123.06 64.42 122.28 L 63.96 121.73 C 62.42 114.64 66.36 107.94 70.81 102.77 C 73.43 99.36 76.71 96.56 79.62 93.42 C 80.12 93.39 81.11 93.34 81.61 93.31 C 75.43 99.44 69.56 106.31 66.21 114.42 C 67.61 115.04 69.03 115.64 70.37 116.39 C 72.94 114.55 75.94 113.39 78.46 111.49 C 80.18 109.20 81.05 106.43 82.38 103.93 C 83.20 102.82 84.06 101.74 84.96 100.70 C 82.41 104.66 82.41 109.82 79.18 113.36 C 76.16 115.82 72.36 117.00 69.35 119.47 C 68.96 119.61 68.19 119.91 67.80 120.06 C 68.00 124.08 62.66 125.86 63.57 130.02 C 64.75 134.05 68.79 136.31 70.31 140.19 C 71.98 138.50 72.95 134.06 70.20 133.09 C 70.74 133.26 71.81 133.59 72.34 133.76 C 72.29 131.49 74.12 128.38 76.70 130.22 C 75.63 130.87 74.39 131.22 73.24 131.73 C 72.22 137.66 73.28 143.87 71.57 149.67 C 72.00 149.59 72.86 149.45 73.29 149.38 C 74.11 147.09 74.93 144.80 75.75 142.52 C 76.31 142.51 77.41 142.49 77.96 142.48 C 78.86 141.60 79.70 140.67 80.55 139.74 C 80.17 140.92 79.76 142.08 79.34 143.25 C 77.26 145.79 76.24 148.94 75.11 151.97 C 73.99 154.98 72.79 158.02 70.68 160.50 C 73.69 159.80 76.73 159.22 79.69 158.32 L 80.52 157.80 C 82.35 158.07 84.20 158.24 86.04 158.56 C 86.91 159.64 87.83 160.70 89.10 161.33 C 92.19 162.53 95.06 164.19 97.84 165.99 L 98.85 166.49 C 104.84 167.66 110.56 165.03 116.22 163.51 C 116.71 162.41 117.23 161.32 117.77 160.24 C 117.18 160.00 116.02 159.51 115.44 159.26 C 111.24 155.90 110.93 150.09 107.39 146.22 C 107.76 145.32 108.48 143.53 108.85 142.64 C 107.02 142.43 105.20 142.26 103.37 142.16 C 101.88 141.12 100.48 139.97 99.06 138.87 C 99.30 138.77 99.80 138.57 100.05 138.46 C 102.48 137.97 104.96 137.76 107.43 137.61 C 107.36 136.90 107.21 135.48 107.14 134.77 C 107.80 134.73 109.12 134.64 109.78 134.60 C 109.58 134.19 109.17 133.35 108.97 132.93 C 111.94 132.36 114.57 130.84 117.03 129.15 C 117.21 127.21 117.95 124.30 120.55 125.32 C 120.61 126.12 120.74 127.71 120.80 128.50 L 122.53 129.05 C 122.32 127.37 122.93 125.88 123.82 124.52 C 124.29 126.25 125.44 127.01 127.27 126.79 C 126.58 127.17 125.89 127.54 125.20 127.91 C 124.43 129.38 123.33 129.77 121.90 129.10 C 122.19 130.45 122.41 131.81 122.55 133.19 C 121.70 133.78 120.85 134.38 120.00 134.98 C 119.82 135.67 119.47 137.06 119.29 137.75 C 119.14 138.11 118.85 138.83 118.71 139.18 C 117.94 140.63 116.93 141.93 115.67 142.98 C 114.32 144.18 113.02 145.45 111.78 146.75 C 112.40 149.27 112.75 151.92 114.04 154.21 C 115.94 157.77 118.37 161.58 122.93 161.60 C 122.98 160.03 122.39 158.93 121.13 158.29 C 121.26 157.87 121.50 157.02 121.62 156.59 C 122.21 157.12 123.40 158.18 123.99 158.70 C 125.55 158.58 127.12 158.06 128.70 158.32 C 129.50 159.43 130.14 160.63 130.82 161.82 C 134.54 161.02 138.34 160.72 142.13 160.41 C 142.47 159.53 143.16 157.77 143.51 156.89 C 142.38 156.99 140.13 157.18 139.01 157.28 C 139.90 157.16 140.77 156.99 141.66 156.85 C 146.02 155.67 150.14 153.41 154.84 153.57 L 154.36 152.09 C 154.59 152.86 155.29 153.35 155.57 154.11 C 151.65 155.52 147.34 156.33 144.08 159.08 C 145.46 160.01 146.84 160.93 148.21 161.88 C 148.68 163.33 149.29 164.74 149.95 166.13 C 148.55 164.57 146.88 163.30 145.11 162.21 C 143.36 162.21 141.68 161.73 139.96 161.53 C 134.32 162.33 128.96 164.53 123.26 165.05 C 119.21 165.30 115.26 166.27 111.22 166.65 C 111.23 166.80 111.26 167.11 111.27 167.26 C 115.20 167.44 119.13 167.66 123.06 167.49 C 128.80 167.13 134.45 168.43 140.02 169.63 L 140.41 169.71 C 140.40 169.91 140.37 170.31 140.36 170.51 C 133.98 168.88 127.34 168.32 120.78 168.67 C 113.34 169.48 105.87 169.46 98.40 169.33 C 99.65 171.83 100.63 174.47 100.75 177.30 C 102.34 177.33 103.93 177.36 105.52 177.37 C 104.08 177.70 102.64 177.98 101.20 178.26 C 101.24 179.25 101.29 180.24 101.35 181.23 C 102.41 181.86 103.50 182.45 104.46 183.23 C 104.97 183.60 105.99 184.34 106.50 184.71 C 107.59 185.04 108.72 185.24 109.87 185.31 C 109.30 185.37 108.15 185.49 107.58 185.55 L 108.67 187.08 C 108.08 186.36 107.42 186.20 106.69 186.60 C 106.44 186.83 105.94 187.30 105.69 187.53 C 106.36 184.27 102.08 182.65 99.44 183.52 C 99.48 182.99 99.56 181.92 99.61 181.39 C 98.62 179.69 97.79 177.91 97.02 176.11 C 95.78 176.93 94.80 178.02 94.01 179.28 C 93.87 178.76 93.58 177.74 93.44 177.23 C 94.48 176.51 95.53 175.83 96.58 175.14 C 95.50 172.62 95.90 169.44 93.45 167.65 C 93.35 168.64 93.15 170.63 93.05 171.62 C 92.95 170.48 92.79 169.35 92.58 168.24 C 88.06 166.18 84.69 161.46 79.25 162.02 L 78.03 161.60 C 75.66 162.52 73.23 163.28 70.77 163.90 C 70.10 166.76 69.42 169.63 68.59 172.46 C 70.62 172.60 72.69 172.55 74.65 173.19 C 74.57 173.52 74.41 174.17 74.33 174.49 C 73.48 174.66 71.79 175.01 70.95 175.18 L 70.12 175.23 C 72.78 179.12 76.71 181.87 80.36 184.76 C 87.85 190.56 96.63 194.58 105.83 196.81 C 111.93 199.92 119.03 200.04 125.73 200.64 C 128.24 200.83 130.73 201.17 133.25 201.30 C 133.33 201.63 133.50 202.30 133.58 202.63 C 132.05 203.26 128.77 202.18 128.83 204.48 C 133.59 204.88 138.40 204.53 143.08 203.61 C 146.30 203.07 149.56 202.67 152.72 201.79 C 157.25 200.68 161.26 198.18 165.68 196.78 C 168.90 195.51 172.38 194.55 175.08 192.29 C 176.02 191.55 176.95 190.81 177.96 190.16 C 184.00 187.68 188.11 182.50 193.28 178.75 C 192.48 178.36 190.87 177.56 190.07 177.17 C 191.31 175.65 192.45 174.05 193.54 172.43 C 193.75 172.36 194.17 172.22 194.37 172.15 C 197.30 169.12 199.88 165.76 202.20 162.25 L 203.37 161.79 C 203.99 161.84 205.24 161.94 205.87 161.99 C 201.73 166.26 198.82 171.47 194.87 175.89 C 195.76 175.03 196.67 174.19 197.59 173.36 C 198.48 173.99 199.23 174.77 199.85 175.67 C 197.73 178.96 194.18 180.84 191.52 183.60 C 187.80 187.37 183.41 190.41 178.90 193.15 C 167.72 200.05 155.01 204.27 142.03 206.07 C 136.99 206.81 131.88 206.67 126.81 207.15 C 125.34 207.12 123.87 207.08 122.41 207.03 C 117.79 206.13 113.09 205.73 108.48 204.77 C 94.54 201.78 81.35 195.61 70.02 186.96 C 72.19 190.26 75.96 191.78 79.15 193.89 C 86.06 198.38 93.52 202.15 101.56 204.15 C 100.75 204.79 99.97 205.45 99.20 206.13 C 92.35 203.39 85.26 201.04 79.04 196.96 C 66.70 190.46 57.56 179.69 48.26 169.60 C 43.57 163.23 39.86 156.16 37.40 148.64 C 35.24 143.62 33.06 138.51 32.36 133.04 C 31.48 129.38 31.65 125.30 29.56 122.04 C 29.24 119.36 29.35 116.65 29.83 113.99 C 30.61 109.38 30.10 104.66 30.85 100.04 C 31.64 95.57 34.01 91.56 34.80 87.09 C 36.14 77.06 42.37 68.71 46.21 59.58 C 47.20 56.24 48.32 52.92 49.99 49.84 C 50.68 50.66 51.36 51.49 52.04 52.31 C 53.72 49.57 54.74 46.11 57.89 44.67 C 59.58 43.96 60.00 42.13 60.71 40.62 C 62.57 39.75 63.80 38.18 64.64 36.35 C 65.44 36.41 66.24 36.45 67.04 36.49 C 68.17 35.07 69.13 33.52 69.93 31.89 C 73.42 30.62 76.70 28.84 79.55 26.45 C 83.06 23.48 87.66 22.56 91.79 20.82 C 94.60 19.71 97.53 18.88 100.25 17.55 C 101.76 16.77 103.14 15.46 104.94 15.48 C 110.04 15.12 114.96 13.54 120.07 13.35 C 129.09 12.39 138.17 12.63 147.22 12.54 M 147.81 14.35 C 149.52 16.38 152.83 14.85 155.12 15.78 C 161.08 18.25 167.14 21.09 173.65 21.66 C 170.84 17.88 166.19 16.61 162.16 14.67 C 160.28 14.49 158.39 14.43 156.51 14.49 L 156.56 13.50 C 154.98 13.64 153.39 13.71 151.80 13.69 C 150.60 14.32 149.27 14.54 147.81 14.35 M 37.37 85.94 C 36.76 88.36 36.53 90.86 37.10 93.31 C 38.61 91.46 39.53 87.64 37.37 85.94 M 66.11 115.27 C 63.71 118.33 67.56 120.21 69.23 116.90 C 68.36 116.82 67.55 116.59 66.80 116.20 C 66.63 115.97 66.29 115.50 66.11 115.27 M 125.38 162.85 C 126.97 162.38 128.52 161.81 130.09 161.26 C 129.19 160.75 127.39 159.71 126.49 159.20 C 126.11 160.41 125.75 161.63 125.38 162.85 M 55.96 173.10 C 56.89 175.21 57.94 177.56 60.28 178.42 C 60.51 175.76 57.65 174.57 55.96 173.10 M 60.90 179.10 C 61.88 180.71 63.10 182.26 64.92 182.95 C 64.24 181.09 62.48 180.09 60.90 179.10 M 69.05 180.22 C 70.84 183.65 74.49 185.34 77.50 187.51 C 80.80 189.90 84.43 191.77 87.90 193.89 C 95.41 197.00 102.92 200.52 111.02 201.71 C 109.58 200.17 107.25 200.45 105.38 199.86 C 92.17 195.79 79.37 189.55 69.05 180.22 M 114.13 201.95 C 114.33 202.49 114.75 203.55 114.95 204.08 C 116.70 204.01 118.45 203.96 120.20 203.79 C 118.40 202.56 116.29 202.01 114.13 201.95 Z" />
<path fill="#1a1a18" opacity="1.00" d=" M 216.96 45.49 C 217.44 45.46 218.42 45.39 218.90 45.36 C 219.57 46.02 220.23 46.68 220.89 47.36 C 222.78 47.51 224.81 47.67 225.21 49.93 C 223.54 49.68 221.88 49.40 220.24 49.02 C 218.77 48.22 217.80 46.88 216.96 45.49 Z" />
<path fill="#1a1a18" opacity="1.00" d=" M 203.05 72.20 C 204.86 71.38 205.70 75.27 204.18 75.76 C 203.06 75.15 202.11 73.32 203.05 72.20 Z" />
<path fill="#1a1a18" opacity="1.00" d=" M 128.04 115.58 C 128.83 115.60 130.42 115.65 131.21 115.67 C 133.10 117.81 134.14 120.43 134.27 123.29 C 132.60 120.55 129.77 119.12 126.60 119.12 C 127.04 117.92 127.53 116.75 128.04 115.58 Z" />
<path fill="#1a1a18" opacity="1.00" d=" M 126.55 123.13 C 127.94 122.54 129.72 122.71 130.90 123.67 C 130.39 123.95 129.37 124.50 128.86 124.77 C 127.39 124.93 126.62 124.39 126.55 123.13 Z" />
<path fill="#1a1a18" opacity="1.00" d=" M 122.96 208.39 C 124.59 209.26 126.37 209.77 128.23 209.48 C 126.87 211.47 124.05 209.91 122.96 208.39 Z" />
<path fill="#1a1a18" opacity="1.00" d=" M 121.76 209.79 C 122.02 210.23 122.56 211.11 122.82 211.55 C 124.47 211.71 126.11 211.87 127.75 212.06 C 125.71 212.53 123.63 212.84 121.54 212.99 C 121.60 212.19 121.70 210.59 121.76 209.79 Z" />
</g>
<g id="#fffeffff">
<path fill="#fffeff" opacity="1.00" d=" M 75.11 151.97 C 76.24 148.94 77.26 145.79 79.34 143.25 C 80.05 148.07 80.18 152.94 80.52 157.80 L 79.69 158.32 C 77.61 156.75 74.55 155.06 75.11 151.97 Z" />
</g>
<g id="#858585ff">
<path fill="#858585" opacity="1.00" d=" M 79.12 22.36 C 81.64 20.80 83.96 18.72 86.91 18.01 C 88.75 18.51 90.25 19.76 91.79 20.82 C 87.66 22.56 83.06 23.48 79.55 26.45 C 76.70 28.84 73.42 30.62 69.93 31.89 C 69.13 33.52 68.17 35.07 67.04 36.49 C 66.24 36.45 65.44 36.41 64.64 36.35 C 63.80 38.18 62.57 39.75 60.71 40.62 C 60.00 42.13 59.58 43.96 57.89 44.67 C 54.74 46.11 53.72 49.57 52.04 52.31 C 51.36 51.49 50.68 50.66 49.99 49.84 C 48.32 52.92 47.20 56.24 46.21 59.58 C 42.37 68.71 36.14 77.06 34.80 87.09 C 34.01 91.56 31.64 95.57 30.85 100.04 C 30.10 104.66 30.61 109.38 29.83 113.99 C 29.35 116.65 29.24 119.36 29.56 122.04 C 31.65 125.30 31.48 129.38 32.36 133.04 C 33.06 138.51 35.24 143.62 37.40 148.64 C 36.99 150.43 36.90 152.36 36.05 154.02 C 34.35 155.94 32.41 157.72 31.45 160.18 C 31.15 159.43 30.83 158.69 30.48 157.97 C 27.29 157.79 26.85 154.33 25.82 152.01 C 24.10 148.10 24.42 143.77 23.79 139.64 C 21.74 133.07 22.67 126.26 22.82 119.53 C 23.13 113.48 23.14 107.41 23.65 101.37 C 24.41 93.96 28.63 87.41 29.26 79.94 C 29.57 77.21 31.66 75.26 33.05 73.05 C 35.79 68.91 38.17 64.55 40.55 60.20 C 40.62 60.08 40.76 59.83 40.83 59.70 C 44.79 52.73 49.66 46.21 55.49 40.70 C 57.42 38.83 58.58 36.30 60.59 34.49 C 63.39 32.01 66.13 29.47 69.04 27.10 C 71.96 24.67 76.00 24.45 79.12 22.36 Z" />
<path fill="#858585" opacity="1.00" d=" M 220.12 121.22 C 220.65 120.48 221.19 119.74 221.74 119.01 C 221.36 121.40 221.05 123.81 221.07 126.25 C 221.09 127.57 221.13 128.90 221.19 130.23 C 220.53 130.27 219.21 130.33 218.55 130.37 C 219.32 127.37 219.77 124.30 220.12 121.22 Z" />
<path fill="#858585" opacity="1.00" d=" M 46.84 134.34 C 51.40 131.77 56.86 131.00 61.86 132.69 C 62.09 132.99 62.57 133.58 62.80 133.87 C 65.13 136.96 67.80 139.78 70.02 142.96 C 69.88 147.52 69.62 152.51 71.37 156.74 C 71.03 156.63 70.36 156.41 70.02 156.30 C 70.13 157.82 70.25 159.34 70.35 160.87 C 69.58 160.99 68.04 161.23 67.26 161.35 C 65.36 163.44 63.66 165.72 62.38 168.25 C 58.95 165.34 56.70 161.41 53.97 157.91 C 49.14 151.58 47.26 143.71 44.62 136.34 C 45.35 135.66 46.09 134.99 46.84 134.34 Z" />
</g>
<g id="#474747ff">
<path fill="#474747" opacity="1.00" d=" M 92.87 36.87 C 97.07 35.95 101.33 34.52 105.67 35.29 C 97.70 40.66 87.48 41.65 79.62 47.37 C 73.88 51.06 68.63 55.45 62.94 59.22 C 64.00 55.84 67.02 53.76 69.01 50.96 C 71.55 47.42 75.75 45.54 78.18 41.86 C 82.64 39.10 87.88 38.22 92.87 36.87 Z" />
</g>
<g id="#fffffeff">
</g>
<g id="#2c2b2bff">
<path fill="#2c2b2b" opacity="1.00" d=" M 70.24 45.30 C 72.38 43.21 75.49 42.86 78.18 41.86 C 75.75 45.54 71.55 47.42 69.01 50.96 C 67.02 53.76 64.00 55.84 62.94 59.22 L 62.50 59.65 C 61.39 60.72 60.49 61.98 59.39 63.07 C 59.13 63.28 58.61 63.71 58.35 63.93 C 55.12 66.21 52.78 69.44 50.24 72.41 C 51.34 66.91 55.74 63.17 58.46 58.50 C 61.48 53.35 65.99 49.40 70.24 45.30 Z" />
</g>
<g id="#262523ff">
<path fill="#262523" opacity="1.00" d=" M 174.69 45.13 C 176.34 45.30 177.99 45.44 179.64 45.61 C 180.41 47.40 181.18 49.20 181.95 50.99 C 181.43 51.79 180.90 52.58 180.39 53.38 C 181.42 54.25 182.45 55.15 183.53 55.96 C 185.50 55.86 187.14 56.61 187.86 58.54 L 186.51 57.75 C 186.00 57.44 184.99 56.83 184.48 56.53 C 184.33 57.26 184.05 58.73 183.90 59.47 C 183.48 59.56 182.62 59.74 182.20 59.83 C 182.36 58.57 182.51 57.29 182.65 56.02 C 182.16 55.77 181.19 55.27 180.70 55.03 C 179.94 56.51 179.14 57.98 178.25 59.39 C 178.22 58.80 178.18 57.63 178.16 57.05 L 178.57 55.91 C 177.60 53.89 178.16 49.38 174.70 50.85 C 174.74 48.94 174.76 47.04 174.69 45.13 Z" />
</g>
<g id="#e7e7e7ff">
<path fill="#e7e7e7" opacity="1.00" d=" M 225.47 62.35 C 227.05 61.56 228.74 64.28 227.87 65.60 C 226.33 66.19 224.65 63.67 225.47 62.35 Z" />
</g>
<g id="#868584ff">
<path fill="#868584" opacity="1.00" d=" M 50.24 72.41 C 52.78 69.44 55.12 66.21 58.35 63.93 C 56.97 66.62 55.84 69.47 54.02 71.92 C 52.16 74.21 51.93 77.25 51.16 80.00 C 50.09 80.98 49.01 81.95 47.96 82.95 C 47.57 84.97 46.88 86.92 45.72 88.62 C 44.28 90.69 43.02 92.88 42.27 95.30 C 42.08 90.69 44.24 86.49 45.45 82.15 C 46.45 78.64 48.28 75.46 50.24 72.41 Z" />
</g>
<g id="#b0b0b0ff">
<path fill="#b0b0b0" opacity="1.00" d=" M 205.39 67.10 C 206.80 66.67 207.28 67.16 206.83 68.57 C 205.44 68.98 204.96 68.49 205.39 67.10 Z" />
</g>
<g id="#d3d3d3ff">
<path fill="#d3d3d3" opacity="1.00" d=" M 190.38 69.17 C 193.37 67.59 190.58 72.46 190.38 69.17 Z" />
</g>
<g id="#bababaff">
<path fill="#bababa" opacity="1.00" d=" M 206.24 70.17 C 207.86 69.68 208.35 70.26 207.73 71.91 C 206.10 72.40 205.60 71.83 206.24 70.17 Z" />
<path fill="#bababa" opacity="1.00" d=" M 218.12 71.14 C 221.39 71.48 216.51 74.10 218.12 71.14 Z" />
</g>
<g id="#aeaeaeff">
<path fill="#aeaeae" opacity="1.00" d=" M 211.53 72.44 C 215.52 75.17 216.24 80.43 218.77 84.30 C 221.30 87.96 221.53 92.53 223.51 96.43 C 222.35 100.30 223.53 104.30 223.44 108.24 C 221.85 104.87 220.52 101.39 219.47 97.82 C 217.70 91.73 215.70 85.68 213.13 79.88 C 212.09 77.54 211.26 75.04 211.53 72.44 Z" />
</g>
<g id="#969696ff">
<path fill="#969696" opacity="1.00" d=" M 220.68 73.21 C 222.39 73.69 222.42 74.25 220.78 74.91 C 220.76 74.48 220.71 73.63 220.68 73.21 Z" />
</g>
<g id="#656565ff">
<path fill="#656565" opacity="1.00" d=" M 207.17 76.83 C 208.83 77.31 209.91 78.58 210.82 79.99 C 213.76 86.08 215.11 92.81 215.98 99.48 C 215.57 99.13 214.75 98.43 214.34 98.08 C 212.41 91.72 210.53 85.31 206.97 79.62 C 207.02 78.92 207.12 77.52 207.17 76.83 Z" />
<path fill="#656565" opacity="1.00" d=" M 223.03 117.34 C 223.41 117.84 224.17 118.84 224.54 119.33 C 224.26 121.71 224.04 124.10 223.89 126.50 C 223.69 126.14 223.28 125.42 223.07 125.06 C 222.93 122.49 223.02 119.91 223.03 117.34 Z" />
<path fill="#656565" opacity="1.00" d=" M 214.91 143.84 C 216.03 143.50 217.15 143.15 218.27 142.80 C 217.80 144.55 217.13 146.24 216.31 147.85 C 214.59 147.03 214.12 145.69 214.91 143.84 Z" />
</g>
<g id="#1b1b1bff">
<path fill="#1b1b1b" opacity="1.00" d=" M 220.67 77.26 C 221.05 77.37 221.80 77.60 222.18 77.71 C 222.52 78.59 222.87 79.47 223.22 80.35 C 225.62 87.06 227.86 94.01 228.13 101.19 C 228.05 104.49 228.57 107.87 231.07 110.25 C 231.09 110.92 231.14 112.26 231.16 112.92 C 230.66 112.76 229.67 112.42 229.17 112.26 C 231.59 113.18 230.73 115.91 230.64 117.87 C 230.00 121.79 230.61 126.27 227.86 129.50 C 227.93 130.10 228.00 130.70 228.08 131.31 C 226.95 138.87 223.63 145.86 220.60 152.80 C 216.14 161.05 211.64 169.40 205.48 176.53 C 193.75 190.74 177.86 201.51 160.36 207.24 C 160.06 207.05 159.46 206.66 159.16 206.47 C 161.47 205.60 163.76 204.66 166.00 203.63 C 165.23 203.08 164.46 202.53 163.70 201.99 C 169.75 200.51 175.42 197.59 180.54 194.09 C 187.32 190.65 192.70 185.29 198.32 180.31 C 207.65 170.21 216.13 158.97 220.91 145.95 C 223.00 139.36 224.88 132.67 225.86 125.81 C 226.77 119.92 227.05 113.93 226.88 107.98 C 226.51 97.99 223.73 88.34 221.02 78.79 C 220.93 78.41 220.76 77.64 220.67 77.26 Z" />
</g>
<g id="#ebebecff">
<path fill="#ebebec" opacity="1.00" d=" M 114.86 151.34 C 115.42 152.15 115.87 153.03 116.45 153.84 C 116.82 154.45 117.19 155.08 117.55 155.71 C 117.81 156.13 118.32 156.98 118.57 157.41 C 119.21 157.63 120.49 158.07 121.13 158.29 C 122.39 158.93 122.98 160.03 122.93 161.60 C 118.37 161.58 115.94 157.77 114.04 154.21 C 114.25 153.49 114.66 152.06 114.86 151.34 Z" />
</g>
<g id="#fefefeff">
</g>
<g id="#cf8286ff">
<path fill="#cf8286" opacity="1.00" d=" M 69.64 87.16 C 69.55 84.08 73.23 84.98 75.14 85.23 C 74.02 87.25 71.68 87.21 69.64 87.16 Z" />
</g>
<g id="#363434ff">
<path fill="#363434" opacity="1.00" d=" M 37.37 85.94 C 39.53 87.64 38.61 91.46 37.10 93.31 C 36.53 90.86 36.76 88.36 37.37 85.94 Z" />
</g>
<g id="#c9908fff">
<path fill="#c9908f" opacity="1.00" d=" M 67.24 89.42 C 68.09 88.07 71.11 89.03 69.76 90.66 C 68.91 92.06 65.81 91.05 67.24 89.42 Z" />
</g>
<g id="#686868ff">
<path fill="#686868" opacity="1.00" d=" M 38.17 98.87 C 38.54 96.67 39.22 94.54 39.89 92.41 C 40.17 95.45 40.32 98.53 41.08 101.50 C 40.79 104.08 40.77 106.75 39.64 109.15 C 39.23 109.98 38.81 110.81 38.38 111.63 C 39.88 112.16 41.37 112.71 42.88 113.22 C 42.03 113.88 41.17 114.53 40.31 115.18 C 40.36 116.31 40.42 117.43 40.49 118.56 C 40.77 118.87 41.34 119.49 41.62 119.80 C 41.03 119.93 39.87 120.20 39.28 120.33 C 39.45 131.19 43.83 141.30 48.08 151.09 C 51.35 158.33 56.79 164.26 61.22 170.77 C 62.32 171.96 61.95 173.56 61.98 175.04 C 58.09 170.99 54.30 166.77 51.23 162.06 C 44.17 150.34 39.38 137.21 37.48 123.66 C 36.93 115.41 36.95 107.06 38.17 98.87 Z" />
</g>
<g id="#d6a7a9ff">
<path fill="#d6a7a9" opacity="1.00" d=" M 66.32 94.20 C 68.79 93.52 68.06 97.58 66.01 97.23 C 64.24 96.96 64.79 94.36 66.32 94.20 Z" />
</g>
<g id="#daa39eff">
<path fill="#daa39e" opacity="1.00" d=" M 66.03 99.48 C 67.58 98.37 69.28 97.50 71.01 96.71 C 70.82 98.73 70.73 100.75 70.81 102.77 C 69.33 102.45 67.87 102.02 66.50 101.39 C 65.70 102.69 64.58 103.65 63.10 104.06 C 63.24 103.53 63.52 102.47 63.66 101.94 C 64.18 101.75 65.20 101.35 65.72 101.16 L 66.03 99.48 Z" />
</g>
<g id="#555555ff">
<path fill="#555555" opacity="1.00" d=" M 223.44 108.24 C 223.53 104.30 222.35 100.30 223.51 96.43 C 225.79 102.56 224.88 109.25 224.90 115.64 C 224.12 113.24 223.45 110.78 223.44 108.24 Z" />
<path fill="#555555" opacity="1.00" d=" M 132.75 130.68 C 133.35 128.93 133.99 127.20 134.73 125.51 C 134.62 129.50 134.44 133.48 134.26 137.47 C 131.86 143.17 129.30 149.28 124.28 153.19 C 124.06 152.65 123.61 151.58 123.38 151.04 C 123.90 149.21 124.33 147.35 124.53 145.46 C 126.11 144.16 127.06 142.35 127.69 140.44 C 128.09 139.37 128.49 138.30 128.91 137.23 C 128.42 137.38 127.44 137.67 126.95 137.82 C 127.06 135.35 125.90 133.35 124.05 131.83 C 125.39 130.46 127.23 130.32 129.02 130.37 C 130.27 130.45 131.51 130.58 132.75 130.68 Z" />
</g>
<g id="#393939ff">
<path fill="#393939" opacity="1.00" d=" M 35.67 98.52 C 36.50 98.64 37.34 98.76 38.17 98.87 C 36.95 107.06 36.93 115.41 37.48 123.66 C 39.38 137.21 44.17 150.34 51.23 162.06 C 46.59 158.77 42.75 153.92 41.50 148.29 C 40.29 143.32 36.91 139.13 36.10 134.03 C 34.55 122.31 32.80 110.19 35.67 98.52 Z" />
</g>
<g id="#757575ff">
<path fill="#757575" opacity="1.00" d=" M 228.13 101.19 C 228.55 100.71 229.41 99.75 229.84 99.28 L 231.07 99.43 C 231.10 100.01 231.15 101.17 231.17 101.75 C 231.13 104.59 231.04 107.42 231.07 110.25 C 228.57 107.87 228.05 104.49 228.13 101.19 Z" />
</g>
<g id="#b7b7b7ff">
<path fill="#b7b7b7" opacity="1.00" d=" M 39.64 109.15 C 43.35 108.32 42.34 103.54 43.92 100.89 C 44.34 101.48 45.17 102.66 45.59 103.25 C 46.52 108.81 45.77 114.44 45.58 120.02 C 45.52 124.82 45.89 129.63 46.84 134.34 C 46.09 134.99 45.35 135.66 44.62 136.34 C 42.13 131.11 42.92 125.26 41.62 119.80 C 41.34 119.49 40.77 118.87 40.49 118.56 C 40.42 117.43 40.36 116.31 40.31 115.18 C 41.17 114.53 42.03 113.88 42.88 113.22 C 41.37 112.71 39.88 112.16 38.38 111.63 C 38.81 110.81 39.23 109.98 39.64 109.15 Z" />
<path fill="#b7b7b7" opacity="1.00" d=" M 222.23 112.44 C 222.37 112.63 222.64 113.01 222.78 113.20 C 222.92 114.58 222.96 115.96 223.03 117.34 C 223.02 119.91 222.93 122.49 223.07 125.06 C 222.57 125.36 221.57 125.95 221.07 126.25 C 221.05 123.81 221.36 121.40 221.74 119.01 C 221.19 119.74 220.65 120.48 220.12 121.22 L 220.21 119.96 C 220.18 117.30 221.30 114.86 222.23 112.44 Z" />
</g>
<g id="#d6d6d6ff">
<path fill="#d6d6d6" opacity="1.00" d=" M 237.00 102.10 C 238.63 101.63 239.18 102.20 238.66 103.81 C 237.02 104.29 236.47 103.72 237.00 102.10 Z" />
</g>
<g id="#8c8c8cff">
<path fill="#8c8c8c" opacity="1.00" d=" M 220.74 108.17 C 221.42 108.19 222.76 108.22 223.44 108.24 C 223.45 110.78 224.12 113.24 224.90 115.64 C 224.85 116.88 224.70 118.11 224.54 119.33 C 224.17 118.84 223.41 117.84 223.03 117.34 C 222.96 115.96 222.92 114.58 222.78 113.20 C 222.64 113.01 222.37 112.63 222.23 112.44 C 220.98 111.33 220.90 109.71 220.74 108.17 Z" />
</g>
<g id="#545454ff">
<path fill="#545454" opacity="1.00" d=" M 123.01 116.29 C 124.68 116.02 126.35 115.78 128.04 115.58 C 127.53 116.75 127.04 117.92 126.60 119.12 C 126.59 119.53 126.56 120.37 126.55 120.78 C 125.61 121.55 124.66 122.30 123.70 123.03 C 123.21 123.18 122.23 123.49 121.75 123.65 C 121.94 121.16 122.31 118.69 123.01 116.29 Z" />
<path fill="#545454" opacity="1.00" d=" M 153.16 205.13 C 156.69 204.13 160.15 202.92 163.70 201.99 C 164.46 202.53 165.23 203.08 166.00 203.63 C 163.76 204.66 161.47 205.60 159.16 206.47 C 159.46 206.66 160.06 207.05 160.36 207.24 L 161.31 207.89 C 158.88 208.40 156.47 208.99 154.05 209.54 C 153.75 208.06 153.46 206.60 153.16 205.13 Z" />
</g>
<g id="#7e7e7eff">
<path fill="#7e7e7e" opacity="1.00" d=" M 227.86 129.50 C 230.61 126.27 230.00 121.79 230.64 117.87 C 230.10 126.66 233.39 135.29 232.11 144.10 C 230.40 148.76 228.84 153.56 225.99 157.67 L 225.03 158.44 C 224.39 158.52 223.12 158.70 222.49 158.78 C 221.19 161.45 219.97 164.16 218.64 166.82 C 216.89 169.33 214.30 171.01 212.06 173.03 C 209.11 176.44 208.04 181.39 204.06 183.90 C 201.10 185.66 199.75 188.98 197.24 191.21 C 194.00 194.49 189.62 196.17 186.03 198.99 C 184.63 200.24 182.79 200.62 181.03 201.06 C 178.15 201.69 176.03 204.10 173.10 204.58 C 169.07 205.32 165.33 207.09 161.31 207.89 L 160.36 207.24 C 177.86 201.51 193.75 190.74 205.48 176.53 C 211.64 169.40 216.14 161.05 220.60 152.80 L 220.89 153.86 C 223.42 150.56 224.90 146.62 227.35 143.27 C 230.14 139.99 229.75 135.03 228.08 131.31 C 228.00 130.70 227.93 130.10 227.86 129.50 Z" />
</g>
<g id="#818181ff">
<path fill="#818181" opacity="1.00" d=" M 126.60 119.12 C 129.77 119.12 132.60 120.55 134.27 123.29 L 134.41 124.29 C 134.09 124.59 133.44 125.19 133.12 125.49 C 132.56 125.04 131.46 124.13 130.90 123.67 C 129.72 122.71 127.94 122.54 126.55 123.13 C 126.55 122.55 126.55 121.37 126.55 120.78 C 126.56 120.37 126.59 119.53 126.60 119.12 Z" />
</g>
<g id="#dededfff">
<path fill="#dededf" opacity="1.00" d=" M 212.06 173.03 C 214.30 171.01 216.89 169.33 218.64 166.82 C 218.86 167.61 219.30 169.20 219.52 169.99 C 217.69 171.49 215.67 172.73 213.53 173.71 C 213.60 175.85 213.80 177.98 214.14 180.10 C 213.22 181.43 211.89 182.29 210.39 182.84 C 209.75 185.22 209.27 187.75 207.75 189.76 C 206.65 191.28 204.78 192.01 203.60 193.45 C 202.81 194.84 202.27 196.35 201.66 197.83 C 200.44 197.31 199.22 196.77 198.00 196.24 C 197.35 198.68 197.96 201.86 195.58 203.45 C 191.10 206.64 190.82 213.37 185.93 216.06 C 183.24 216.00 180.87 214.44 178.36 213.62 C 177.00 213.53 175.65 213.50 174.30 213.49 C 173.80 213.03 172.81 212.10 172.31 211.63 C 173.58 211.16 174.85 210.66 176.11 210.15 C 168.34 211.07 160.73 213.19 152.88 213.48 C 151.63 213.00 150.72 211.97 149.68 211.17 C 147.91 211.92 146.17 212.72 144.39 213.42 C 144.30 212.49 144.12 210.62 144.03 209.68 C 147.37 209.77 150.75 210.24 154.05 209.54 C 156.47 208.99 158.88 208.40 161.31 207.89 C 165.33 207.09 169.07 205.32 173.10 204.58 C 176.03 204.10 178.15 201.69 181.03 201.06 C 182.79 200.62 184.63 200.24 186.03 198.99 C 189.62 196.17 194.00 194.49 197.24 191.21 C 199.75 188.98 201.10 185.66 204.06 183.90 C 208.04 181.39 209.11 176.44 212.06 173.03 Z" />
</g>
<g id="#9d9d9dff">
<path fill="#9d9d9d" opacity="1.00" d=" M 128.86 124.77 C 129.37 124.50 130.39 123.95 130.90 123.67 C 131.46 124.13 132.56 125.04 133.12 125.49 C 133.44 125.19 134.09 124.59 134.41 124.29 L 134.86 123.84 C 134.83 124.26 134.76 125.09 134.73 125.51 C 133.99 127.20 133.35 128.93 132.75 130.68 C 131.51 130.58 130.27 130.45 129.02 130.37 C 129.26 128.53 129.52 126.70 129.70 124.85 L 128.86 124.77 Z" />
</g>
<g id="#a7a7a7ff">
<path fill="#a7a7a7" opacity="1.00" d=" M 221.07 126.25 C 221.57 125.95 222.57 125.36 223.07 125.06 C 223.28 125.42 223.69 126.14 223.89 126.50 C 224.11 126.84 224.53 127.53 224.75 127.88 C 225.03 127.36 225.58 126.33 225.86 125.81 C 224.88 132.67 223.00 139.36 220.91 145.95 C 216.13 158.97 207.65 170.21 198.32 180.31 C 192.70 185.29 187.32 190.65 180.54 194.09 C 180.13 193.85 179.31 193.39 178.90 193.15 C 183.41 190.41 187.80 187.37 191.52 183.60 C 194.18 180.84 197.73 178.96 199.85 175.67 C 199.23 174.77 198.48 173.99 197.59 173.36 C 196.67 174.19 195.76 175.03 194.87 175.89 C 198.82 171.47 201.73 166.26 205.87 161.99 C 205.24 161.94 203.99 161.84 203.37 161.79 L 202.20 162.25 C 202.83 161.18 203.45 160.11 204.12 159.07 C 204.79 160.02 205.49 160.96 206.21 161.89 L 207.07 160.15 C 206.20 164.61 199.19 167.04 201.85 172.15 C 206.07 168.94 208.94 164.09 211.11 159.31 C 210.60 159.12 209.57 158.75 209.05 158.57 C 213.10 157.50 214.46 152.49 214.96 148.79 C 212.34 150.34 212.12 153.86 209.52 155.41 C 210.81 151.58 212.52 147.91 213.70 144.04 C 212.71 144.97 211.74 145.93 210.80 146.91 C 211.54 144.70 212.20 142.46 213.12 140.31 C 215.04 136.62 215.26 132.39 216.82 128.58 C 217.03 130.22 217.21 131.86 217.37 133.51 C 217.76 132.46 218.16 131.42 218.55 130.37 C 219.21 130.33 220.53 130.27 221.19 130.23 C 221.13 128.90 221.09 127.57 221.07 126.25 M 219.27 131.40 C 218.26 134.81 217.37 138.25 216.54 141.71 C 219.35 141.17 220.19 138.39 220.32 135.91 C 220.24 134.49 221.30 131.79 219.27 131.40 M 214.91 143.84 C 214.12 145.69 214.59 147.03 216.31 147.85 C 217.13 146.24 217.80 144.55 218.27 142.80 C 217.15 143.15 216.03 143.50 214.91 143.84 M 199.27 172.18 C 198.77 174.28 202.87 174.35 201.70 172.18 C 201.09 172.18 199.88 172.18 199.27 172.18 Z" />
</g>
<g id="#585858ff">
<path fill="#585858" opacity="1.00" d=" M 219.27 131.40 C 221.30 131.79 220.24 134.49 220.32 135.91 C 220.19 138.39 219.35 141.17 216.54 141.71 C 217.37 138.25 218.26 134.81 219.27 131.40 Z" />
</g>
<g id="#e1e1e1ff">
<path fill="#e1e1e1" opacity="1.00" d=" M 228.08 131.31 C 229.75 135.03 230.14 139.99 227.35 143.27 C 224.90 146.62 223.42 150.56 220.89 153.86 L 220.60 152.80 C 223.63 145.86 226.95 138.87 228.08 131.31 Z" />
</g>
<g id="#cfc7c5ff">
<path fill="#cfc7c5" opacity="1.00" d=" M 77.20 137.34 C 78.90 136.79 79.46 137.31 78.88 138.88 C 77.17 139.42 76.61 138.91 77.20 137.34 Z" />
</g>
<g id="#edededff">
<path fill="#ededed" opacity="1.00" d=" M 118.71 139.18 C 118.85 138.83 119.14 138.11 119.29 137.75 C 121.83 139.33 124.58 140.80 127.69 140.44 C 127.06 142.35 126.11 144.16 124.53 145.46 C 123.89 146.09 122.59 147.34 121.94 147.97 C 120.05 145.63 121.12 142.85 121.80 140.31 C 120.77 139.93 119.74 139.56 118.71 139.18 Z" />
</g>
<g id="#acacacff">
<path fill="#acacac" opacity="1.00" d=" M 115.67 142.98 C 116.93 141.93 117.94 140.63 118.71 139.18 C 119.74 139.56 120.77 139.93 121.80 140.31 C 121.12 142.85 120.05 145.63 121.94 147.97 C 121.80 148.12 121.51 148.41 121.36 148.56 C 120.89 148.73 119.93 149.07 119.46 149.23 C 119.64 147.20 119.78 145.17 119.90 143.14 C 118.86 143.85 117.82 144.57 116.78 145.30 C 116.50 144.72 115.95 143.56 115.67 142.98 Z" />
</g>
<g id="#b9afadff">
<path fill="#b9afad" opacity="1.00" d=" M 74.14 140.28 C 74.69 140.82 74.69 140.82 74.14 140.28 Z" />
</g>
<g id="#545455ff">
<path fill="#545455" opacity="1.00" d=" M 103.37 142.16 C 105.20 142.26 107.02 142.43 108.85 142.64 C 108.48 143.53 107.76 145.32 107.39 146.22 C 104.80 148.00 102.25 149.84 99.65 151.60 C 97.62 152.99 95.30 153.82 92.97 154.55 C 91.69 153.59 90.41 152.64 89.11 151.71 C 89.81 149.48 89.72 146.84 91.00 144.88 C 95.35 145.09 99.44 143.93 103.37 142.16 Z" />
</g>
<g id="#555554ff">
<path fill="#555554" opacity="1.00" d=" M 111.78 146.75 C 113.02 145.45 114.32 144.18 115.67 142.98 C 115.95 143.56 116.50 144.72 116.78 145.30 C 117.68 147.17 118.61 149.02 119.55 150.88 C 118.52 151.87 117.48 152.85 116.45 153.84 C 115.87 153.03 115.42 152.15 114.86 151.34 C 114.66 152.06 114.25 153.49 114.04 154.21 C 112.75 151.92 112.40 149.27 111.78 146.75 Z" />
</g>
<g id="#808080ff">
<path fill="#808080" opacity="1.00" d=" M 116.78 145.30 C 117.82 144.57 118.86 143.85 119.90 143.14 C 119.78 145.17 119.64 147.20 119.46 149.23 C 119.93 149.07 120.89 148.73 121.36 148.56 C 121.66 151.56 119.02 153.44 117.55 155.71 C 117.19 155.08 116.82 154.45 116.45 153.84 C 117.48 152.85 118.52 151.87 119.55 150.88 C 118.61 149.02 117.68 147.17 116.78 145.30 Z" />
</g>
<g id="#4f4f4fff">
<path fill="#4f4f4f" opacity="1.00" d=" M 210.80 146.91 C 211.74 145.93 212.71 144.97 213.70 144.04 C 212.52 147.91 210.81 151.58 209.52 155.41 C 212.12 153.86 212.34 150.34 214.96 148.79 C 214.46 152.49 213.10 157.50 209.05 158.57 C 209.57 158.75 210.60 159.12 211.11 159.31 C 208.94 164.09 206.07 168.94 201.85 172.15 C 199.19 167.04 206.20 164.61 207.07 160.15 L 206.21 161.89 C 205.49 160.96 204.79 160.02 204.12 159.07 C 207.03 155.42 208.94 151.16 210.80 146.91 Z" />
</g>
<g id="#1a1a1aff">
<path fill="#1a1a1a" opacity="1.00" d=" M 121.94 147.97 C 122.59 147.34 123.89 146.09 124.53 145.46 C 124.33 147.35 123.90 149.21 123.38 151.04 C 123.61 151.58 124.06 152.65 124.28 153.19 C 123.39 153.88 122.50 154.59 121.62 155.30 C 121.62 155.62 121.62 156.27 121.62 156.59 C 121.50 157.02 121.26 157.87 121.13 158.29 C 120.49 158.07 119.21 157.63 118.57 157.41 C 118.32 156.98 117.81 156.13 117.55 155.71 C 119.02 153.44 121.66 151.56 121.36 148.56 C 121.51 148.41 121.80 148.12 121.94 147.97 Z" />
</g>
<g id="#737373ff">
<path fill="#737373" opacity="1.00" d=" M 37.40 148.64 C 39.86 156.16 43.57 163.23 48.26 169.60 C 47.77 169.53 46.80 169.39 46.32 169.32 C 46.91 172.32 47.34 175.41 46.74 178.45 C 46.31 178.68 45.44 179.13 45.01 179.35 C 45.03 178.50 45.07 176.79 45.09 175.94 C 43.44 176.16 41.81 176.42 40.16 176.66 C 37.18 172.08 35.73 166.51 31.45 162.85 C 31.45 162.18 31.45 160.84 31.45 160.18 C 32.41 157.72 34.35 155.94 36.05 154.02 C 36.90 152.36 36.99 150.43 37.40 148.64 Z" />
</g>
<g id="#dfdcd9ff">
<path fill="#dfdcd9" opacity="1.00" d=" M 151.20 150.16 C 152.49 150.81 152.47 151.49 151.13 152.18 C 149.84 151.52 149.86 150.85 151.20 150.16 Z" />
</g>
<g id="#cac1bfff">
<path fill="#cac1bf" opacity="1.00" d=" M 142.23 150.96 C 145.17 149.30 142.57 154.24 142.23 150.96 Z" />
</g>
<g id="#c5c0bdff">
<path fill="#c5c0bd" opacity="1.00" d=" M 146.29 151.13 C 149.25 149.56 146.58 154.44 146.29 151.13 Z" />
</g>
<g id="#848484ff">
<path fill="#848484" opacity="1.00" d=" M 70.68 160.50 C 72.79 158.02 73.99 154.98 75.11 151.97 C 74.55 155.06 77.61 156.75 79.69 158.32 C 76.73 159.22 73.69 159.80 70.68 160.50 Z" />
<path fill="#848484" opacity="1.00" d=" M 46.32 169.32 C 46.80 169.39 47.77 169.53 48.26 169.60 C 57.56 179.69 66.70 190.46 79.04 196.96 C 85.26 201.04 92.35 203.39 99.20 206.13 C 103.04 208.23 107.44 208.72 111.68 209.50 C 111.53 208.89 111.25 207.66 111.11 207.04 C 108.14 205.50 104.72 205.15 101.56 204.15 C 93.52 202.15 86.06 198.38 79.15 193.89 C 75.96 191.78 72.19 190.26 70.02 186.96 C 81.35 195.61 94.54 201.78 108.48 204.77 C 113.09 205.73 117.79 206.13 122.41 207.03 C 121.17 207.20 119.93 207.35 118.68 207.49 C 116.87 207.56 115.06 207.60 113.25 207.68 C 114.24 210.44 117.37 210.57 119.80 211.09 C 119.97 210.50 120.31 209.32 120.47 208.72 C 120.79 208.99 121.44 209.52 121.76 209.79 C 121.70 210.59 121.60 212.19 121.54 212.99 C 123.63 212.84 125.71 212.53 127.75 212.06 C 129.00 212.22 130.24 212.48 131.47 212.74 C 130.89 212.95 129.71 213.36 129.12 213.57 C 134.19 214.04 139.42 215.11 144.39 213.42 C 146.17 212.72 147.91 211.92 149.68 211.17 C 150.72 211.97 151.63 213.00 152.88 213.48 C 160.73 213.19 168.34 211.07 176.11 210.15 C 174.85 210.66 173.58 211.16 172.31 211.63 C 168.23 213.04 163.99 213.86 159.82 214.92 C 152.30 216.76 144.69 218.27 136.98 219.04 C 130.36 219.70 123.69 220.79 117.03 220.04 L 116.27 219.69 C 112.77 216.72 107.23 217.45 104.43 213.58 C 103.56 211.77 105.29 210.22 105.92 208.65 C 103.92 208.82 101.92 209.02 99.93 209.32 C 98.68 209.50 97.43 209.68 96.18 209.87 C 92.20 208.56 92.33 202.27 87.42 202.85 C 84.76 202.62 81.85 203.72 79.36 202.52 C 78.65 201.31 78.35 199.91 77.91 198.60 C 76.14 198.82 74.37 199.11 72.60 199.35 C 69.89 198.21 67.16 197.00 65.05 194.91 C 63.82 193.38 61.70 194.00 60.00 193.74 C 57.21 194.42 56.31 192.08 56.02 189.81 C 51.79 189.27 47.49 189.31 43.29 188.53 C 43.38 187.78 43.57 186.27 43.67 185.52 C 44.01 183.44 44.47 181.39 45.01 179.35 C 45.44 179.13 46.31 178.68 46.74 178.45 C 47.34 175.41 46.91 172.32 46.32 169.32 Z" />
<path fill="#848484" opacity="1.00" d=" M 70.12 175.23 L 70.95 175.18 C 73.61 177.11 76.87 177.62 80.03 178.21 C 85.00 179.31 89.65 181.57 93.81 184.50 C 94.29 184.05 95.27 183.17 95.76 182.73 C 96.89 183.98 97.72 185.45 97.88 187.16 C 99.96 189.37 102.29 191.32 104.66 193.21 C 101.78 194.98 99.25 191.39 96.61 190.49 C 91.42 188.19 86.25 184.33 80.36 184.76 C 76.71 181.87 72.78 179.12 70.12 175.23 Z" />
<path fill="#848484" opacity="1.00" d=" M 60.90 179.10 C 62.48 180.09 64.24 181.09 64.92 182.95 C 63.10 182.26 61.88 180.71 60.90 179.10 Z" />
<path fill="#848484" opacity="1.00" d=" M 69.05 180.22 C 79.37 189.55 92.17 195.79 105.38 199.86 C 107.25 200.45 109.58 200.17 111.02 201.71 C 102.92 200.52 95.41 197.00 87.90 193.89 C 84.43 191.77 80.80 189.90 77.50 187.51 C 74.49 185.34 70.84 183.65 69.05 180.22 Z" />
</g>
<g id="#d3c5c3ff">
<path fill="#d3c5c3" opacity="1.00" d=" M 143.00 153.28 C 144.48 153.48 144.49 154.07 143.02 155.05 C 143.01 154.61 143.00 153.72 143.00 153.28 Z" />
</g>
<g id="#d88b8cff">
<path fill="#d88b8c" opacity="1.00" d=" M 154.67 159.56 C 154.92 159.10 155.44 158.19 155.70 157.73 L 156.66 157.71 C 156.81 159.12 157.01 160.52 157.27 161.92 C 159.24 163.92 160.42 160.38 162.41 160.11 C 161.45 161.24 160.46 162.34 159.49 163.46 C 159.55 163.80 159.66 164.48 159.72 164.82 C 157.07 166.41 153.98 166.86 150.96 167.12 C 150.71 166.87 150.20 166.37 149.95 166.13 C 152.46 165.96 154.97 165.81 157.45 165.42 C 158.46 162.66 155.37 161.49 153.58 160.21 C 152.15 159.07 150.35 159.73 148.74 159.83 C 149.01 159.44 149.57 158.66 149.84 158.27 C 151.47 158.59 153.08 159.04 154.67 159.56 Z" />
</g>
<g id="#e62b26ff">
<path fill="#e62b26" opacity="1.00" d=" M 148.74 159.83 C 150.35 159.73 152.15 159.07 153.58 160.21 C 155.37 161.49 158.46 162.66 157.45 165.42 C 154.97 165.81 152.46 165.96 149.95 166.13 C 149.29 164.74 148.68 163.33 148.21 161.88 L 148.74 159.83 Z" />
</g>
<g id="#d28689ff">
<path fill="#d28689" opacity="1.00" d=" M 163.37 161.41 C 164.87 160.32 166.09 163.06 164.83 163.99 C 163.21 165.29 161.99 162.35 163.37 161.41 Z" />
</g>
<g id="#fdfdfdff">
</g>
<g id="#919191ff">
<path fill="#919191" opacity="1.00" d=" M 31.45 162.85 C 35.73 166.51 37.18 172.08 40.16 176.66 C 41.81 176.42 43.44 176.16 45.09 175.94 C 45.07 176.79 45.03 178.50 45.01 179.35 C 44.47 181.39 44.01 183.44 43.67 185.52 C 42.57 184.94 41.46 184.36 40.39 183.73 C 39.21 182.50 38.09 181.22 37.02 179.89 C 33.73 174.86 31.66 168.86 31.45 162.85 Z" />
</g>
<g id="#8d8d8dff">
<path fill="#8d8d8d" opacity="1.00" d=" M 72.43 168.34 C 74.58 166.58 77.68 167.16 80.26 167.14 C 82.09 167.71 83.89 168.37 85.71 169.01 C 84.79 171.88 83.09 175.66 79.40 174.48 C 78.56 174.51 76.88 174.58 76.04 174.62 C 75.94 174.03 75.73 172.85 75.63 172.26 C 74.31 172.22 72.99 172.18 71.68 172.16 C 71.87 170.87 72.12 169.60 72.43 168.34 Z" />
</g>
<g id="#999999ff">
<path fill="#999999" opacity="1.00" d=" M 188.49 176.51 C 190.03 175.01 191.25 172.82 193.54 172.43 C 192.45 174.05 191.31 175.65 190.07 177.17 C 186.57 180.65 182.58 183.58 178.47 186.30 C 178.30 187.59 178.12 188.87 177.96 190.16 C 176.95 190.81 176.02 191.55 175.08 192.29 C 173.26 191.35 171.20 190.36 169.29 191.66 C 168.95 192.17 168.28 193.20 167.94 193.72 C 165.48 195.01 162.85 196.48 159.95 196.02 C 156.08 195.43 152.44 193.58 148.44 193.89 C 147.97 193.64 147.04 193.12 146.58 192.86 C 148.71 193.04 150.85 193.23 153.00 193.15 C 160.89 190.68 168.71 187.82 176.26 184.48 C 179.95 181.18 185.37 180.51 188.49 176.51 Z" />
</g>
<g id="#333333ff">
<path fill="#333333" opacity="1.00" d=" M 199.27 172.18 C 199.88 172.18 201.09 172.18 201.70 172.18 C 202.87 174.35 198.77 174.28 199.27 172.18 Z" />
</g>
<g id="#373634ff">
<path fill="#373634" opacity="1.00" d=" M 55.96 173.10 C 57.65 174.57 60.51 175.76 60.28 178.42 C 57.94 177.56 56.89 175.21 55.96 173.10 Z" />
</g>
<g id="#c69aa9ff">
<path fill="#c69aa9" opacity="1.00" d=" M 90.34 176.04 C 93.27 174.39 90.59 179.38 90.34 176.04 Z" />
</g>
<g id="#c9b5b8ff">
<path fill="#c9b5b8" opacity="1.00" d=" M 106.20 176.13 C 107.84 175.60 108.40 176.14 107.88 177.77 C 106.25 178.29 105.69 177.74 106.20 176.13 Z" />
</g>
<g id="#717171ff">
<path fill="#717171" opacity="1.00" d=" M 178.47 186.30 C 182.58 183.58 186.57 180.65 190.07 177.17 C 190.87 177.56 192.48 178.36 193.28 178.75 C 188.11 182.50 184.00 187.68 177.96 190.16 C 178.12 188.87 178.30 187.59 178.47 186.30 Z" />
</g>
<g id="#a8a7a8ff">
<path fill="#a8a7a8" opacity="1.00" d=" M 80.36 184.76 C 86.25 184.33 91.42 188.19 96.61 190.49 C 99.25 191.39 101.78 194.98 104.66 193.21 C 106.00 194.32 107.26 195.53 108.49 196.78 C 107.83 196.78 106.50 196.80 105.83 196.81 C 96.63 194.58 87.85 190.56 80.36 184.76 Z" />
</g>
<g id="#cfbcbcff">
<path fill="#cfbcbc" opacity="1.00" d=" M 100.37 186.13 C 103.40 184.58 100.54 189.41 100.37 186.13 Z" />
</g>
<g id="#777777ff">
<path fill="#777777" opacity="1.00" d=" M 169.29 191.66 C 171.20 190.36 173.26 191.35 175.08 192.29 C 172.38 194.55 168.90 195.51 165.68 196.78 C 161.26 198.18 157.25 200.68 152.72 201.79 C 153.70 198.92 157.82 200.22 158.64 197.48 C 155.74 197.67 152.88 198.18 150.08 198.94 C 145.73 200.17 141.16 200.05 136.73 200.87 C 135.57 201.03 134.41 201.18 133.25 201.30 C 130.73 201.17 128.24 200.83 125.73 200.64 C 133.44 198.98 141.51 197.97 148.44 193.89 C 152.44 193.58 156.08 195.43 159.95 196.02 C 162.85 196.48 165.48 195.01 167.94 193.72 C 169.86 194.49 172.45 191.62 169.29 191.66 Z" />
</g>
<g id="#5b5b5bff">
<path fill="#5b5b5b" opacity="1.00" d=" M 169.29 191.66 C 172.45 191.62 169.86 194.49 167.94 193.72 C 168.28 193.20 168.95 192.17 169.29 191.66 Z" />
</g>
<g id="#868686ff">
<path fill="#868686" opacity="1.00" d=" M 140.74 193.71 C 142.59 192.96 144.58 192.46 146.58 192.86 C 147.04 193.12 147.97 193.64 148.44 193.89 C 141.51 197.97 133.44 198.98 125.73 200.64 C 119.03 200.04 111.93 199.92 105.83 196.81 C 106.50 196.80 107.83 196.78 108.49 196.78 C 112.11 198.98 116.40 197.22 120.13 196.25 C 123.69 195.23 127.25 193.75 131.00 193.81 C 134.25 194.33 137.64 195.44 140.74 193.71 Z" />
</g>
<g id="#7e7e7cff">
<path fill="#7e7e7c" opacity="1.00" d=" M 142.03 206.07 C 155.01 204.27 167.72 200.05 178.90 193.15 C 179.31 193.39 180.13 193.85 180.54 194.09 C 175.42 197.59 169.75 200.51 163.70 201.99 C 160.15 202.92 156.69 204.13 153.16 205.13 C 153.46 206.60 153.75 208.06 154.05 209.54 C 150.75 210.24 147.37 209.77 144.03 209.68 C 141.03 209.63 138.04 209.76 135.04 209.89 C 133.34 209.62 131.66 209.22 129.98 208.83 C 130.10 208.47 130.34 207.74 130.47 207.38 C 129.25 207.29 128.03 207.22 126.81 207.15 C 131.88 206.67 136.99 206.81 142.03 206.07 M 143.03 207.94 L 143.17 208.96 C 145.98 209.37 149.19 208.08 152.22 208.29 C 152.30 207.67 152.45 206.41 152.52 205.79 C 149.34 206.41 146.08 206.79 143.03 207.94 M 138.41 208.20 C 138.42 209.61 140.87 209.36 141.66 208.69 C 141.72 207.26 139.14 207.35 138.41 208.20 Z" />
</g>
<g id="#505050ff">
<path fill="#505050" opacity="1.00" d=" M 150.08 198.94 C 152.88 198.18 155.74 197.67 158.64 197.48 C 157.82 200.22 153.70 198.92 152.72 201.79 C 149.56 202.67 146.30 203.07 143.08 203.61 C 142.79 203.32 142.21 202.74 141.91 202.45 C 143.39 202.16 144.86 201.85 146.33 201.53 C 144.34 199.85 141.95 201.17 139.87 201.88 C 138.83 201.53 137.78 201.20 136.73 200.87 C 141.16 200.05 145.73 200.17 150.08 198.94 Z" />
</g>
<g id="#262624ff">
<path fill="#262624" opacity="1.00" d=" M 133.25 201.30 C 134.41 201.18 135.57 201.03 136.73 200.87 C 137.78 201.20 138.83 201.53 139.87 201.88 C 141.95 201.17 144.34 199.85 146.33 201.53 C 144.86 201.85 143.39 202.16 141.91 202.45 C 142.21 202.74 142.79 203.32 143.08 203.61 C 138.40 204.53 133.59 204.88 128.83 204.48 C 128.77 202.18 132.05 203.26 133.58 202.63 C 133.50 202.30 133.33 201.63 133.25 201.30 Z" />
</g>
<g id="#31312fff">
<path fill="#31312f" opacity="1.00" d=" M 114.13 201.95 C 116.29 202.01 118.40 202.56 120.20 203.79 C 118.45 203.96 116.70 204.01 114.95 204.08 C 114.75 203.55 114.33 202.49 114.13 201.95 Z" />
</g>
<g id="#4a4a49ff">
<path fill="#4a4a49" opacity="1.00" d=" M 101.56 204.15 C 104.72 205.15 108.14 205.50 111.11 207.04 C 111.25 207.66 111.53 208.89 111.68 209.50 C 107.44 208.72 103.04 208.23 99.20 206.13 C 99.97 205.45 100.75 204.79 101.56 204.15 Z" />
</g>
<g id="#454545ff">
<path fill="#454545" opacity="1.00" d=" M 143.03 207.94 C 146.08 206.79 149.34 206.41 152.52 205.79 C 152.45 206.41 152.30 207.67 152.22 208.29 C 149.19 208.08 145.98 209.37 143.17 208.96 L 143.03 207.94 Z" />
</g>
<g id="#adadadff">
<path fill="#adadad" opacity="1.00" d=" M 118.68 207.49 C 119.93 207.35 121.17 207.20 122.41 207.03 C 123.87 207.08 125.34 207.12 126.81 207.15 C 128.03 207.22 129.25 207.29 130.47 207.38 C 130.34 207.74 130.10 208.47 129.98 208.83 C 131.66 209.22 133.34 209.62 135.04 209.89 C 133.86 210.85 132.69 211.83 131.47 212.74 C 130.24 212.48 129.00 212.22 127.75 212.06 C 126.11 211.87 124.47 211.71 122.82 211.55 C 122.56 211.11 122.02 210.23 121.76 209.79 C 121.44 209.52 120.79 208.99 120.47 208.72 C 120.03 208.42 119.13 207.80 118.68 207.49 M 122.96 208.39 C 124.05 209.91 126.87 211.47 128.23 209.48 C 126.37 209.77 124.59 209.26 122.96 208.39 Z" />
</g>
<g id="#4d4d4dff">
<path fill="#4d4d4d" opacity="1.00" d=" M 113.25 207.68 C 115.06 207.60 116.87 207.56 118.68 207.49 C 119.13 207.80 120.03 208.42 120.47 208.72 C 120.31 209.32 119.97 210.50 119.80 211.09 C 117.37 210.57 114.24 210.44 113.25 207.68 Z" />
</g>
<g id="#4c4c4cff">
<path fill="#4c4c4c" opacity="1.00" d=" M 138.41 208.20 C 139.14 207.35 141.72 207.26 141.66 208.69 C 140.87 209.36 138.42 209.61 138.41 208.20 Z" />
</g>
<g id="#eeeeeeff">
<path fill="#eeeeee" opacity="1.00" d=" M 135.04 209.89 C 138.04 209.76 141.03 209.63 144.03 209.68 C 144.12 210.62 144.30 212.49 144.39 213.42 C 139.42 215.11 134.19 214.04 129.12 213.57 C 129.71 213.36 130.89 212.95 131.47 212.74 C 132.69 211.83 133.86 210.85 135.04 209.89 Z" />
</g>
</svg>
