<?xml version="1.0" encoding="UTF-8" ?>
<!DOCTYPE svg PUBLIC "-//W3C//DTD SVG 1.1//EN" "http://www.w3.org/Graphics/SVG/1.1/DTD/svg11.dtd">
<svg width="372pt" height="245pt" viewBox="0 0 372 245" version="1.1" xmlns="http://www.w3.org/2000/svg">
<g id="#ffffffff">
</g>
<g id="#111111ff">
<path fill="#111111" opacity="1.00" d=" M 128.25 29.19 C 134.04 32.54 140.51 36.50 143.05 43.01 C 143.33 48.94 141.79 54.83 141.55 60.76 C 149.53 57.53 157.44 54.13 165.35 50.73 C 171.31 52.60 177.75 54.18 182.57 58.38 C 185.23 60.73 183.33 64.48 183.18 67.42 C 185.14 68.20 188.05 68.44 188.56 70.97 C 188.47 73.62 185.33 73.49 183.46 73.94 C 181.66 77.29 178.49 79.47 175.47 81.61 C 174.98 85.24 172.22 87.60 169.49 89.67 C 165.20 95.66 157.74 97.52 151.40 100.47 C 146.39 104.60 141.88 109.34 137.05 113.70 C 149.73 120.19 163.83 123.22 177.83 125.20 C 179.08 128.55 180.28 131.92 181.54 135.26 C 183.10 134.29 184.52 133.03 185.24 131.28 C 188.32 124.58 189.51 117.22 190.86 110.03 C 190.95 108.35 191.93 106.98 193.08 105.84 C 195.01 108.87 195.34 112.51 195.90 115.96 C 197.16 125.20 197.28 134.54 197.37 143.84 C 198.27 142.93 199.17 142.03 200.06 141.11 C 200.08 137.70 199.80 134.27 200.24 130.88 C 201.12 127.39 203.78 124.71 206.28 122.28 C 214.30 114.94 223.89 109.64 233.19 104.15 C 235.99 101.10 237.45 96.57 241.47 94.73 C 246.24 93.30 251.06 92.05 255.84 90.66 C 262.62 93.75 269.90 95.47 277.18 96.83 C 279.34 100.31 281.14 104.04 281.75 108.12 C 273.42 122.72 265.16 137.34 256.81 151.93 C 255.96 153.21 255.94 154.77 255.73 156.24 C 257.37 155.46 258.85 153.04 260.89 154.01 C 269.24 156.66 278.68 159.64 283.65 167.42 C 285.19 169.28 284.04 173.17 287.08 173.44 C 286.93 175.20 286.99 177.47 284.89 178.09 C 280.22 179.84 274.93 180.75 270.04 179.35 C 264.99 181.43 260.08 183.83 254.98 185.79 C 255.57 184.46 256.17 183.12 256.78 181.79 C 250.69 182.36 245.30 186.85 239.06 185.62 C 235.67 186.56 232.44 187.99 229.11 189.11 C 228.91 188.51 228.52 187.31 228.32 186.70 C 232.52 184.25 236.98 181.53 238.98 176.86 C 234.18 173.79 229.21 170.32 226.98 164.83 C 224.56 160.19 225.68 154.62 223.09 150.04 C 227.20 139.69 231.36 129.36 235.49 119.02 C 225.43 123.43 215.39 127.88 205.34 132.32 C 205.27 136.34 203.69 140.58 205.35 144.45 C 207.23 149.12 208.01 154.13 209.68 158.87 C 210.14 166.64 209.24 174.42 208.85 182.18 C 209.30 182.41 210.20 182.87 210.64 183.10 C 210.65 182.15 210.68 180.24 210.69 179.29 C 211.34 179.30 212.65 179.30 213.31 179.31 C 212.70 181.40 212.13 183.50 211.56 185.59 C 212.22 186.01 213.56 186.84 214.22 187.25 C 213.97 189.94 215.20 193.69 212.32 195.32 C 209.21 197.18 205.64 198.33 202.06 198.78 C 195.35 198.47 190.96 192.40 188.39 186.83 C 186.35 183.22 186.17 178.71 183.24 175.62 C 183.67 171.76 184.56 167.95 184.86 164.07 C 184.96 156.34 183.47 148.58 184.59 140.88 C 184.72 139.64 184.74 138.40 184.70 137.16 C 168.78 150.05 151.35 161.13 132.65 169.53 C 131.05 184.72 129.64 200.02 126.03 214.89 C 124.87 218.72 124.06 223.25 120.47 225.62 C 119.70 227.63 118.77 229.65 117.05 231.02 C 111.80 235.49 105.26 237.98 98.94 240.50 C 93.46 235.18 87.94 229.84 83.22 223.82 C 81.68 221.73 79.99 219.56 79.47 216.95 C 80.35 212.03 81.86 207.23 82.99 202.36 C 83.65 202.36 84.96 202.35 85.62 202.35 C 85.63 203.09 85.67 204.57 85.68 205.31 C 88.81 204.68 90.62 201.83 92.76 199.76 C 98.42 193.80 102.80 186.12 102.59 177.67 C 98.64 177.41 94.28 176.51 91.74 173.17 C 88.90 169.90 88.78 165.42 88.09 161.37 C 85.91 158.71 85.42 155.21 85.72 151.87 C 88.45 145.93 93.48 141.48 98.36 137.30 C 103.58 132.56 108.67 127.64 113.29 122.30 C 115.43 119.70 117.71 117.07 118.82 113.84 C 119.96 110.05 122.34 106.83 124.02 103.28 C 121.00 100.82 117.95 98.39 114.91 95.95 C 114.82 92.06 115.13 88.15 114.76 84.26 C 113.83 79.87 112.20 75.66 111.26 71.27 C 115.63 67.37 118.64 62.23 120.89 56.88 C 124.58 48.03 126.63 38.60 128.25 29.19 M 131.74 117.94 C 132.00 124.60 132.29 131.25 132.71 137.90 C 138.42 135.36 145.11 133.44 148.86 128.07 C 143.67 123.95 138.44 119.27 131.74 117.94 M 103.28 150.19 C 105.35 149.96 107.76 149.99 109.25 148.26 C 112.71 144.41 113.29 138.96 114.01 134.05 C 108.89 138.16 104.66 143.65 103.28 150.19 Z" />
<path fill="#111111" opacity="1.00" d=" M 160.98 173.08 C 164.37 173.05 166.48 176.25 168.59 178.45 C 171.76 181.96 173.80 186.50 177.94 189.05 C 182.05 194.44 186.10 200.95 184.93 208.06 C 185.03 210.74 181.88 211.47 179.91 212.25 C 175.01 214.27 169.27 211.66 166.69 207.24 C 162.66 200.59 162.18 192.55 161.93 184.97 C 161.91 181.22 160.62 177.65 160.22 173.95 L 160.98 173.08 Z" />
</g>
</svg>
