<?xml version="1.0" encoding="UTF-8" ?>
<!DOCTYPE svg PUBLIC "-//W3C//DTD SVG 1.1//EN" "http://www.w3.org/Graphics/SVG/1.1/DTD/svg11.dtd">
<svg width="375pt" height="256pt" viewBox="0 0 375 256" version="1.1" xmlns="http://www.w3.org/2000/svg">
<g id="#ffffffff">
</g>
<g id="#111111ff">
<path fill="#111111" opacity="1.00" d=" M 126.31 37.38 C 127.88 36.12 130.49 36.62 131.78 38.14 C 136.67 43.07 139.37 49.62 142.18 55.84 C 142.95 58.03 144.67 60.29 143.65 62.68 C 144.76 65.83 142.76 69.07 144.13 72.23 C 137.07 89.41 125.94 105.01 111.36 116.61 C 116.08 124.88 120.83 133.14 125.53 141.42 C 130.89 130.93 136.83 120.59 144.72 111.77 C 149.90 106.02 156.09 100.82 163.55 98.39 C 167.97 96.84 172.76 97.39 177.26 96.19 C 186.98 93.75 196.45 90.41 205.91 87.13 C 217.07 83.33 228.08 78.32 240.02 77.65 C 243.15 77.17 245.86 79.11 248.56 80.35 C 251.34 81.95 255.35 83.41 255.22 87.28 C 253.86 87.32 252.51 87.36 251.16 87.41 C 251.57 89.40 252.77 91.03 254.05 92.56 C 253.85 93.03 253.46 93.96 253.27 94.43 C 252.38 94.43 250.62 94.42 249.74 94.42 C 249.28 93.99 248.35 93.11 247.89 92.67 C 239.01 98.51 230.11 104.32 221.24 110.17 C 219.76 111.42 217.80 111.28 216.01 111.35 C 222.73 104.92 229.84 98.90 236.50 92.39 C 225.78 96.55 215.21 101.11 204.62 105.58 C 199.39 109.80 192.44 110.57 185.95 110.29 C 178.91 108.29 172.17 105.31 165.12 103.33 C 160.27 103.48 156.11 106.51 152.67 109.69 C 146.26 115.84 141.42 123.40 136.94 131.01 C 128.58 145.57 121.78 160.95 115.44 176.47 C 114.39 180.26 114.91 184.33 115.26 188.21 C 116.63 195.66 114.45 203.15 112.14 210.19 C 108.81 220.19 103.29 229.22 98.85 238.72 C 98.50 238.85 97.80 239.11 97.45 239.24 C 97.34 236.00 95.13 233.58 91.87 233.43 C 91.63 227.01 91.23 220.60 90.99 214.19 C 99.83 202.75 103.73 188.52 108.51 175.11 C 111.73 172.12 112.39 167.69 113.18 163.59 C 103.38 172.72 93.65 181.92 83.87 191.08 C 83.21 191.07 81.89 191.07 81.23 191.07 C 79.69 189.13 77.78 187.42 76.70 185.17 C 77.32 180.34 79.55 175.91 81.50 171.51 C 88.27 157.47 96.67 144.29 105.17 131.26 C 107.08 128.63 105.45 125.27 105.07 122.42 C 103.97 123.25 102.88 124.10 101.81 124.95 C 100.75 121.61 99.87 118.21 98.95 114.82 C 97.77 115.70 96.58 116.59 95.40 117.47 C 94.81 111.86 94.23 106.26 93.62 100.66 C 103.64 83.79 113.75 66.97 123.77 50.09 C 122.24 45.67 123.51 40.99 126.31 37.38 Z" />
<path fill="#111111" opacity="1.00" d=" M 240.89 121.90 C 246.95 120.62 252.99 119.22 259.06 117.95 C 261.40 117.14 263.59 118.48 265.75 119.21 C 267.51 118.63 269.26 118.04 271.02 117.44 C 278.06 120.47 284.04 125.34 289.95 130.12 C 289.47 132.17 287.96 133.30 285.96 133.73 C 285.65 134.39 285.36 135.05 285.07 135.72 C 286.17 137.45 286.97 139.35 287.27 141.40 C 279.83 138.28 271.76 140.72 264.03 140.93 C 254.42 142.21 244.13 142.11 235.41 146.85 C 240.31 151.08 240.16 158.11 241.11 163.98 C 242.67 179.60 242.58 195.32 242.59 211.00 C 242.59 222.07 240.92 233.52 235.27 243.21 C 232.41 248.26 228.33 252.50 223.74 256.00 L 212.58 256.00 C 208.34 254.94 204.28 253.24 199.99 252.43 C 194.68 252.30 189.39 253.00 184.09 253.15 C 183.77 251.95 183.47 250.75 183.16 249.55 C 177.48 249.71 171.82 250.21 166.15 250.45 C 178.72 243.57 191.95 237.96 204.89 231.81 C 209.76 229.26 213.77 225.20 216.45 220.41 C 221.59 211.50 222.01 200.98 222.46 190.97 C 223.29 186.05 222.04 181.06 223.16 176.18 C 224.57 166.68 224.79 157.06 224.87 147.47 C 208.61 150.45 192.53 154.49 176.12 156.69 C 166.39 158.69 155.99 154.83 148.76 148.29 C 142.91 142.86 144.26 134.39 144.17 127.24 C 145.46 125.63 146.75 124.02 148.06 122.43 C 149.15 123.44 150.24 124.47 151.31 125.51 C 150.99 126.91 150.67 128.31 150.36 129.72 C 155.82 130.56 161.22 133.29 166.83 131.94 C 191.45 127.93 216.11 124.13 240.73 120.13 C 240.77 120.57 240.85 121.45 240.89 121.90 Z" />
</g>
</svg>
