<?xml version="1.0" encoding="UTF-8" ?>
<!DOCTYPE svg PUBLIC "-//W3C//DTD SVG 1.1//EN" "http://www.w3.org/Graphics/SVG/1.1/DTD/svg11.dtd">
<svg width="374pt" height="253pt" viewBox="0 0 374 253" version="1.1" xmlns="http://www.w3.org/2000/svg">
<g id="#ffffffff">
</g>
<g id="#111111ff">
<path fill="#111111" opacity="1.00" d=" M 205.27 41.99 C 205.39 39.69 208.83 39.32 210.01 41.01 C 216.22 46.70 222.49 52.33 228.69 58.03 C 225.29 63.50 220.77 69.16 214.20 70.73 C 211.22 71.97 209.21 68.95 207.12 67.41 C 205.43 67.50 203.71 67.43 202.07 67.91 C 192.56 70.43 183.18 73.51 173.59 75.71 C 183.66 69.29 194.92 64.42 203.61 56.03 C 202.71 52.84 201.87 49.63 200.98 46.45 C 203.35 46.08 205.14 44.47 205.27 41.99 Z" />
<path fill="#111111" opacity="1.00" d=" M 238.34 68.33 C 243.76 64.78 250.88 63.90 256.99 66.10 C 264.01 68.41 271.64 70.09 277.35 75.09 C 276.40 76.70 275.47 78.32 274.50 79.92 C 275.12 83.45 278.11 87.22 275.92 90.72 C 275.51 90.19 274.69 89.13 274.28 88.60 C 271.04 88.80 267.86 89.49 264.79 90.53 C 261.61 89.41 258.46 87.63 254.97 88.02 C 241.37 89.01 227.89 91.38 214.59 94.34 C 213.09 94.63 211.56 94.66 210.04 94.64 C 206.75 99.22 200.56 97.80 195.76 98.85 C 190.81 100.33 186.04 102.36 181.10 103.89 C 181.50 104.77 181.69 105.83 182.46 106.50 C 189.18 112.74 196.34 119.19 199.87 127.87 C 201.08 131.20 202.07 136.26 198.24 138.26 C 193.32 140.77 187.56 140.07 182.22 140.16 C 178.74 137.19 175.19 134.29 171.69 131.34 C 168.72 131.90 165.76 132.51 162.80 133.10 C 169.34 138.15 175.85 143.25 182.45 148.23 C 182.22 149.82 181.97 151.41 181.67 152.99 C 183.79 157.42 186.75 161.74 185.92 166.93 C 182.97 170.58 178.67 172.93 173.93 173.09 C 170.99 168.73 165.24 168.75 160.62 167.68 C 159.30 165.44 156.57 164.48 154.11 165.30 C 147.70 167.42 141.55 170.92 137.19 176.15 C 132.68 181.40 130.94 188.40 130.78 195.19 C 157.21 184.30 183.85 173.48 211.72 166.83 C 218.10 170.75 224.60 174.48 231.04 178.30 C 231.65 182.41 232.23 186.51 232.84 190.62 C 220.19 191.35 209.83 199.74 201.00 208.07 C 198.05 211.27 194.22 213.92 192.54 218.07 C 201.21 218.34 209.83 221.84 215.86 228.10 C 215.52 228.58 214.82 229.52 214.48 230.00 C 214.91 230.47 215.78 231.42 216.22 231.89 C 215.56 233.25 214.89 234.61 214.22 235.97 C 214.79 237.44 215.38 238.91 215.98 240.38 C 214.40 241.00 212.83 241.65 211.23 242.22 C 207.94 243.70 204.45 241.83 201.14 241.38 C 199.65 243.22 197.74 243.12 196.24 241.37 C 182.13 243.91 168.05 246.64 153.95 249.26 C 152.74 248.37 151.54 247.48 150.34 246.61 C 143.61 248.74 136.90 250.92 130.16 253.00 L 123.42 253.00 C 132.49 249.87 141.32 246.10 150.16 242.41 C 154.40 240.68 158.48 238.52 162.93 237.40 C 162.89 233.50 161.58 229.79 161.12 225.96 C 161.42 223.24 163.30 221.05 164.82 218.89 C 171.41 210.52 179.17 203.17 186.87 195.84 C 188.25 194.84 188.53 193.18 188.77 191.62 C 173.97 195.87 159.15 200.44 145.24 207.15 C 140.90 209.53 135.90 211.79 133.36 216.27 C 130.94 222.80 128.74 229.42 126.47 236.00 C 124.39 235.82 122.01 236.36 120.22 235.03 C 117.47 232.90 116.00 229.60 114.66 226.49 C 113.01 222.15 111.13 217.70 111.30 212.96 C 111.43 210.43 110.83 207.58 112.33 205.34 C 115.89 199.69 117.75 193.21 119.58 186.84 C 120.09 184.85 121.08 183.04 122.30 181.41 C 129.65 171.33 139.37 163.29 149.49 156.14 C 148.01 151.29 144.66 146.40 146.43 141.16 C 148.00 136.37 149.59 131.02 153.76 127.82 C 155.98 126.03 158.84 128.57 161.20 127.24 C 163.25 126.33 165.23 125.26 167.21 124.21 C 165.73 119.19 164.26 114.17 162.77 109.15 C 142.30 112.90 121.61 116.57 102.13 124.13 C 98.43 125.33 95.27 128.09 91.43 128.72 C 89.33 126.99 88.05 124.49 86.48 122.31 C 86.40 110.32 92.29 98.84 101.61 91.41 C 106.50 91.85 111.57 93.15 116.39 91.60 C 131.89 86.73 147.42 81.99 162.91 77.11 C 164.90 76.46 166.98 76.35 169.05 76.21 C 162.06 79.84 154.89 83.12 147.84 86.63 C 144.31 88.44 140.50 89.77 137.33 92.22 C 143.99 92.74 150.47 90.81 156.93 89.48 C 182.80 83.55 208.47 76.72 234.17 70.10 C 235.64 69.72 237.07 69.16 238.34 68.33 Z" />
</g>
</svg>
