<?xml version="1.0" encoding="UTF-8" ?>
<!DOCTYPE svg PUBLIC "-//W3C//DTD SVG 1.1//EN" "http://www.w3.org/Graphics/SVG/1.1/DTD/svg11.dtd">
<svg width="424pt" height="219pt" viewBox="0 0 424 219" version="1.1" xmlns="http://www.w3.org/2000/svg">
<g id="#ffffffff">
</g>
<g id="#111111ff">
<path fill="#111111" opacity="1.00" d=" M 236.15 37.83 C 237.46 35.06 238.11 31.38 241.02 29.80 C 246.62 30.30 252.26 31.33 257.82 29.78 C 258.57 31.28 259.35 32.76 260.19 34.21 C 260.32 43.27 260.21 52.34 260.25 61.41 C 264.84 61.33 269.47 59.46 274.00 61.04 C 278.05 62.00 282.86 63.96 283.47 68.67 C 275.79 74.01 266.84 77.00 258.13 80.17 C 257.03 87.80 255.72 95.47 256.02 103.22 C 267.54 100.29 279.06 97.25 290.81 95.36 C 293.33 95.10 296.08 94.24 298.46 95.56 C 302.72 97.55 307.24 98.88 311.76 100.17 C 311.95 103.71 311.34 107.99 307.59 109.49 C 299.27 112.96 289.30 110.31 281.42 115.36 C 277.97 117.44 279.51 121.97 279.19 125.26 C 283.23 126.41 287.33 127.31 291.26 128.80 C 287.67 132.70 283.26 135.68 279.12 138.95 C 279.45 141.30 279.99 143.63 280.99 145.79 C 279.78 149.10 280.62 152.58 280.82 155.98 C 281.47 164.66 282.14 173.35 282.23 182.06 C 282.12 183.35 282.49 184.59 283.11 185.72 C 282.03 194.30 280.63 202.89 278.14 211.19 C 277.22 213.48 276.60 216.44 274.14 217.57 C 261.20 215.48 250.71 206.67 241.57 197.84 C 239.99 197.58 238.41 197.29 236.87 196.87 C 233.12 197.66 229.34 198.28 225.53 198.65 C 226.47 193.44 227.67 188.29 228.71 183.10 C 224.45 178.90 220.97 174.02 217.27 169.35 C 217.25 168.28 217.23 167.22 217.22 166.17 C 223.99 166.37 231.00 165.75 237.52 167.95 C 239.40 167.32 241.40 165.53 243.44 166.59 C 248.44 168.88 252.27 173.02 255.83 177.10 C 257.62 178.79 257.48 181.57 256.75 183.72 C 253.76 186.05 249.98 186.96 246.51 188.32 C 245.50 190.02 244.49 191.71 243.47 193.40 C 248.18 201.34 258.02 203.39 266.58 202.89 C 268.02 197.37 267.48 191.64 267.56 186.01 C 267.34 170.64 268.24 155.22 266.58 139.91 C 252.65 146.74 239.11 154.57 224.53 159.93 C 220.86 155.00 217.53 149.50 217.11 143.21 C 220.63 140.77 224.12 138.27 227.70 135.91 C 231.12 136.85 234.64 137.39 238.16 137.81 C 246.92 132.95 256.40 128.70 266.56 128.30 C 265.51 124.73 264.34 121.19 262.77 117.81 C 257.39 118.81 250.32 118.65 247.26 124.03 C 245.33 123.38 243.39 122.73 241.47 122.07 C 231.64 124.83 221.85 127.68 212.04 130.48 C 207.07 128.52 202.30 125.89 197.21 124.35 C 182.56 132.11 166.83 138.92 150.05 139.81 C 145.89 140.45 142.69 137.00 138.66 136.62 C 138.66 135.33 138.66 134.04 138.66 132.75 C 155.93 127.41 171.64 118.13 187.99 110.61 C 194.48 111.16 200.94 112.96 206.81 115.82 C 214.72 114.78 222.74 113.86 230.31 111.25 C 232.21 110.42 235.04 109.59 235.03 107.05 C 235.51 100.77 236.78 94.60 238.17 88.48 C 228.74 92.36 219.31 96.23 209.89 100.13 C 205.43 96.01 201.64 90.68 201.41 84.40 C 212.04 80.14 222.66 75.84 232.95 70.80 C 235.82 69.32 238.79 67.90 241.21 65.73 C 241.69 59.50 241.26 53.22 241.43 46.96 C 241.83 43.10 238.48 40.41 236.15 37.83 Z" />
<path fill="#111111" opacity="1.00" d=" M 156.74 40.14 C 154.39 38.06 155.81 34.66 157.96 33.07 C 164.96 32.64 172.41 32.79 178.73 36.22 C 184.05 38.96 188.02 43.64 191.11 48.67 C 197.72 48.00 204.38 47.29 211.03 47.81 C 214.84 49.16 216.28 53.38 216.28 57.09 C 210.57 57.91 204.93 60.87 199.10 59.50 C 197.46 59.26 195.74 58.81 194.15 59.53 C 173.52 67.60 152.96 75.91 131.95 82.98 C 128.34 84.01 124.67 85.95 120.84 84.86 C 118.53 84.03 115.44 86.66 113.83 84.16 C 111.75 81.13 111.03 77.44 110.09 73.95 C 117.57 73.98 124.78 71.79 131.86 69.61 C 145.32 65.30 158.45 60.04 171.53 54.68 C 172.90 54.26 173.61 52.98 174.42 51.91 C 168.24 48.50 161.58 45.43 156.74 40.14 Z" />
<path fill="#111111" opacity="1.00" d=" M 176.02 81.09 C 179.52 80.06 183.27 78.35 186.94 79.59 C 190.43 80.72 194.39 81.49 197.01 84.26 C 198.20 86.72 197.31 89.55 194.92 90.86 C 185.27 97.65 173.87 101.30 162.86 105.24 C 158.65 104.31 154.37 103.49 150.05 103.35 C 145.83 103.72 141.69 104.70 137.51 105.34 C 136.12 103.48 135.14 101.40 135.32 99.03 C 148.70 92.66 162.02 86.04 176.02 81.09 Z" />
<path fill="#111111" opacity="1.00" d=" M 184.91 140.02 C 191.67 138.15 199.09 138.76 205.56 141.42 C 209.04 143.05 213.01 146.70 211.66 150.93 C 209.63 157.89 204.92 163.63 200.51 169.23 C 200.95 172.36 201.37 175.50 201.58 178.66 C 192.44 182.28 183.09 186.04 175.47 192.40 C 172.49 194.78 170.44 198.13 169.73 201.88 C 163.00 202.22 156.84 198.36 153.27 192.84 C 145.85 181.78 143.10 168.44 140.65 155.57 C 144.45 155.89 148.24 156.25 152.04 156.61 C 153.04 152.25 156.97 149.67 160.72 147.82 C 168.38 144.11 176.68 142.02 184.91 140.02 M 161.74 162.95 C 163.73 168.82 165.53 174.81 165.95 181.03 C 173.87 178.77 178.47 171.30 183.25 165.17 C 184.93 163.46 184.86 161.07 184.84 158.85 C 177.04 159.57 169.32 160.97 161.74 162.95 Z" />
</g>
</svg>
